<?xml version="1.0" encoding="UTF-8"?>
<!DOCTYPE svg PUBLIC "-//W3C//DTD SVG 1.1//EN" "http://www.w3.org/Graphics/SVG/1.1/DTD/svg11.dtd">
<svg xmlns="http://www.w3.org/2000/svg" version="1.1" width="716px" height="348px" style="shape-rendering:geometricPrecision; text-rendering:geometricPrecision; image-rendering:optimizeQuality; fill-rule:evenodd; clip-rule:evenodd" xmlns:xlink="http://www.w3.org/1999/xlink">
<g><path style="opacity:0.982" fill="#080808" d="M 309.5,96.5 C 309.5,97.8333 310.167,98.5 311.5,98.5C 311.973,99.9063 312.973,100.573 314.5,100.5C 323.895,107.229 331.561,115.562 337.5,125.5C 337.427,127.027 338.094,128.027 339.5,128.5C 339.427,130.027 340.094,131.027 341.5,131.5C 359.161,169.194 355.327,204.528 330,237.5C 322.124,246.212 312.957,253.212 302.5,258.5C 300.62,258.229 299.287,258.896 298.5,260.5C 267.776,272.615 237.776,270.781 208.5,255C 205.928,252.583 203.262,250.416 200.5,248.5C 199.415,246.413 197.749,245.08 195.5,244.5C 191.103,240.108 187.103,235.442 183.5,230.5C 183.144,228.81 182.144,227.81 180.5,227.5C 176.71,221.585 173.71,215.252 171.5,208.5C 171.31,205.145 170.31,202.145 168.5,199.5C 161.876,173.323 165.543,148.656 179.5,125.5C 191.495,124.46 203.495,124.46 215.5,125.5C 219.768,125.869 223.768,126.869 227.5,128.5C 207.015,144.707 199.848,165.707 206,191.5C 207.444,197.714 209.944,203.381 213.5,208.5C 213.738,210.404 214.738,211.738 216.5,212.5C 217.167,212.5 217.5,212.833 217.5,213.5C 217.738,215.404 218.738,216.738 220.5,217.5C 223.135,218.811 225.469,220.478 227.5,222.5C 227.973,223.906 228.973,224.573 230.5,224.5C 230.973,225.906 231.973,226.573 233.5,226.5C 234.609,226.557 235.609,226.89 236.5,227.5C 236.47,228.497 236.97,229.164 238,229.5C 240.791,230.406 243.624,231.073 246.5,231.5C 256.241,233.037 265.907,232.703 275.5,230.5C 277.553,230.598 279.22,229.931 280.5,228.5C 292.449,222.218 301.782,213.218 308.5,201.5C 310.104,200.713 310.771,199.38 310.5,197.5C 316.122,181.998 315.788,166.665 309.5,151.5C 309.002,148.674 307.669,146.34 305.5,144.5C 302.908,140.568 299.908,136.901 296.5,133.5C 295.135,131.14 293.135,129.473 290.5,128.5C 284.718,125.274 278.718,122.608 272.5,120.5C 268.1,118.896 263.434,118.229 258.5,118.5C 257.317,117.496 255.984,116.662 254.5,116C 233.181,114.795 211.848,113.961 190.5,113.5C 190.281,112.325 190.614,111.325 191.5,110.5C 199.715,101.896 209.382,95.5629 220.5,91.5C 223.241,91.2927 225.574,90.2927 227.5,88.5C 255.917,79.0317 283.251,81.6984 309.5,96.5 Z"/></g>
<g><path style="opacity:0.982" fill="#080808" d="M 488.5,88.5 C 490.426,90.2927 492.759,91.2927 495.5,91.5C 502.238,94.0358 508.571,97.3692 514.5,101.5C 515.13,104.705 517.13,106.371 520.5,106.5C 523.008,108.841 525.341,111.341 527.5,114C 519.495,122.338 511.495,130.672 503.5,139C 502.5,139.667 501.5,139.667 500.5,139C 479.139,117.829 454.806,113.829 427.5,127C 419.168,133.157 412.502,140.657 407.5,149.5C 405.896,150.287 405.229,151.62 405.5,153.5C 403.253,160.45 401.587,167.616 400.5,175C 401.468,183.009 403.135,190.842 405.5,198.5C 405.273,200.933 406.273,202.599 408.5,203.5C 413.904,213.87 421.904,221.537 432.5,226.5C 432.973,227.906 433.973,228.573 435.5,228.5C 450.987,234.118 466.32,233.784 481.5,227.5C 484.089,227.539 486.089,226.539 487.5,224.5C 491.212,222.649 494.546,220.316 497.5,217.5C 498.833,216.833 499.833,215.833 500.5,214.5C 501.665,211.978 502.998,211.978 504.5,214.5C 504.5,216.5 505.5,217.5 507.5,217.5C 510.651,220.263 513.651,223.263 516.5,226.5C 516.833,228.833 518.167,230.167 520.5,230.5C 523.178,232.701 525.512,235.201 527.5,238C 525.996,240.669 523.996,242.836 521.5,244.5C 519.167,244.833 517.833,246.167 517.5,248.5C 514.477,250.533 511.477,252.533 508.5,254.5C 506.62,254.229 505.287,254.896 504.5,256.5C 484.182,267.254 462.515,270.754 439.5,267C 432.637,265.695 425.97,263.861 419.5,261.5C 418.089,259.461 416.089,258.461 413.5,258.5C 395.812,249.478 382.478,236.145 373.5,218.5C 373.715,216.821 373.048,215.821 371.5,215.5C 360.356,187.773 361.022,160.44 373.5,133.5C 374.906,133.027 375.573,132.027 375.5,130.5C 375.328,129.508 375.662,128.842 376.5,128.5C 377.906,128.027 378.573,127.027 378.5,125.5C 380.762,120.91 383.762,116.91 387.5,113.5C 388.5,113.167 389.167,112.5 389.5,111.5C 392.558,107.475 396.225,104.142 400.5,101.5C 402.027,101.573 403.027,100.906 403.5,99.5C 405.027,99.573 406.027,98.9063 406.5,97.5C 432.452,82.0609 459.785,79.0609 488.5,88.5 Z"/></g>
<g><path style="opacity:0.982" fill="#080808" d="M 679.5,99.5 C 680.262,101.262 681.596,102.262 683.5,102.5C 684.262,104.262 685.596,105.262 687.5,105.5C 690.479,108.479 693.479,111.479 696.5,114.5C 688.527,122.473 680.527,130.473 672.5,138.5C 669.737,139.467 667.737,138.467 666.5,135.5C 666.027,134.094 665.027,133.427 663.5,133.5C 663.5,133.167 663.5,132.833 663.5,132.5C 663.027,131.094 662.027,130.427 660.5,130.5C 638.113,115.703 615.446,115.203 592.5,129C 586.21,134.449 580.876,140.615 576.5,147.5C 574.896,148.287 574.229,149.62 574.5,151.5C 573.499,154.172 572.499,156.838 571.5,159.5C 570.076,161.515 569.41,163.848 569.5,166.5C 568.917,176.362 569.917,186.029 572.5,195.5C 572.66,197.153 573.326,198.486 574.5,199.5C 574.229,201.38 574.896,202.713 576.5,203.5C 578.422,207.663 581.088,211.33 584.5,214.5C 584.525,217.179 585.858,218.512 588.5,218.5C 591.99,221.411 595.656,224.078 599.5,226.5C 600.514,227.674 601.847,228.34 603.5,228.5C 618.475,233.799 633.475,233.799 648.5,228.5C 650.674,228.25 652.341,227.25 653.5,225.5C 657.336,223.416 661.003,221.083 664.5,218.5C 667.056,217.457 669.223,215.79 671,213.5C 671.383,214.056 671.883,214.389 672.5,214.5C 675.474,217.138 678.474,219.805 681.5,222.5C 682.419,225.089 684.086,227.089 686.5,228.5C 689.813,231.478 693.147,234.478 696.5,237.5C 690.261,246.074 682.261,252.407 672.5,256.5C 670.847,256.66 669.514,257.326 668.5,258.5C 665.018,261.174 661.018,263.008 656.5,264C 632.282,270.857 608.615,269.69 585.5,260.5C 584.089,258.461 582.089,257.461 579.5,257.5C 562.368,248.369 549.702,235.036 541.5,217.5C 541.573,215.973 540.906,214.973 539.5,214.5C 528.744,188.143 528.911,161.81 540,135.5C 542.778,129.588 546.278,124.255 550.5,119.5C 551.906,119.027 552.573,118.027 552.5,116.5C 555.543,112.158 559.21,108.491 563.5,105.5C 565.404,105.262 566.738,104.262 567.5,102.5C 569.404,102.262 570.738,101.262 571.5,99.5C 607.427,76.8429 643.427,76.8429 679.5,99.5 Z"/></g>
<g><path style="opacity:0.084" fill="#a2a2a2" d="M 182.5,88.5 C 168.496,88.3334 154.496,88.5001 140.5,89C 139.627,90.045 138.627,90.8783 137.5,91.5C 137.511,89.9826 138.177,88.8159 139.5,88C 154.006,87.1725 168.339,87.3392 182.5,88.5 Z"/></g>
<g><path style="opacity:0.982" fill="#070707" d="M 60.5,98.5 C 60.7376,100.404 61.7376,101.738 63.5,102.5C 64.3382,102.842 64.6716,103.508 64.5,104.5C 64.427,106.027 65.0937,107.027 66.5,107.5C 70.6654,113.158 74.3321,119.158 77.5,125.5C 78.1103,127.434 79.1103,129.101 80.5,130.5C 80.427,132.027 81.0937,133.027 82.5,133.5C 87.8226,140.801 92.6559,148.468 97,156.5C 101.954,148.232 107.121,140.232 112.5,132.5C 113.906,132.027 114.573,131.027 114.5,129.5C 122.14,116.851 129.806,104.184 137.5,91.5C 138.627,90.8783 139.627,90.045 140.5,89C 154.496,88.5001 168.496,88.3334 182.5,88.5C 179.75,93.6705 176.75,98.6705 173.5,103.5C 171.952,103.821 171.285,104.821 171.5,106.5C 169.554,107.035 168.554,108.368 168.5,110.5C 167.153,113.193 165.82,115.86 164.5,118.5C 163.167,118.5 162.5,119.167 162.5,120.5C 151.177,138.472 139.844,156.472 128.5,174.5C 126.952,174.821 126.285,175.821 126.5,177.5C 123.87,182.74 120.704,187.74 117,192.5C 116.5,216.498 116.333,240.498 116.5,264.5C 103.833,264.5 91.1667,264.5 78.5,264.5C 77.6201,262.389 77.6201,260.389 78.5,258.5C 79.1665,247.672 79.4999,236.672 79.5,225.5C 79.4989,214.146 78.8322,203.146 77.5,192.5C 77.7409,189.966 76.7409,188.3 74.5,187.5C 74.7148,185.821 74.0481,184.821 72.5,184.5C 68.5,178.167 64.5,171.833 60.5,165.5C 60.2624,163.596 59.2624,162.262 57.5,161.5C 55.4448,157.739 53.1115,154.072 50.5,150.5C 50.7148,148.821 50.0481,147.821 48.5,147.5C 42.1888,137.515 35.8555,127.515 29.5,117.5C 29.7148,115.821 29.0481,114.821 27.5,114.5C 23.5353,108.599 19.5353,102.599 15.5,96.5C 13.6294,93.7659 12.6294,90.7659 12.5,87.5C 26.5159,87.1674 40.5159,87.5008 54.5,88.5C 56.0976,92.0925 58.0976,95.4258 60.5,98.5 Z"/></g>
<g><path style="opacity:0.094" fill="#7d7d7d" d="M 227.5,88.5 C 225.574,90.2927 223.241,91.2927 220.5,91.5C 222.426,89.7073 224.759,88.7073 227.5,88.5 Z"/></g>
<g><path style="opacity:0.086" fill="#8a8a8a" d="M 488.5,88.5 C 491.241,88.7073 493.574,89.7073 495.5,91.5C 492.759,91.2927 490.426,90.2927 488.5,88.5 Z"/></g>
<g><path style="opacity:0.165" fill="#b9b9b9" d="M 309.5,96.5 C 310.5,96.8333 311.167,97.5 311.5,98.5C 310.167,98.5 309.5,97.8333 309.5,96.5 Z"/></g>
<g><path style="opacity:0.173" fill="#9f9f9f" d="M 406.5,97.5 C 406.027,98.9063 405.027,99.573 403.5,99.5C 403.973,98.0937 404.973,97.427 406.5,97.5 Z"/></g>
<g><path style="opacity:0.31" fill="#868686" d="M 60.5,98.5 C 62.2624,99.2623 63.2624,100.596 63.5,102.5C 61.7376,101.738 60.7376,100.404 60.5,98.5 Z"/></g>
<g><path style="opacity:0.016" fill="#bebebe" d="M 311.5,98.5 C 313.027,98.427 314.027,99.0937 314.5,100.5C 312.973,100.573 311.973,99.9063 311.5,98.5 Z"/></g>
<g><path style="opacity:0.016" fill="#919191" d="M 679.5,99.5 C 681.404,99.7376 682.738,100.738 683.5,102.5C 681.596,102.262 680.262,101.262 679.5,99.5 Z"/></g>
<g><path style="opacity:0.188" fill="#a1a1a1" d="M 403.5,99.5 C 403.027,100.906 402.027,101.573 400.5,101.5C 400.973,100.094 401.973,99.427 403.5,99.5 Z"/></g>
<g><path style="opacity:0.169" fill="#949494" d="M 571.5,99.5 C 570.738,101.262 569.404,102.262 567.5,102.5C 568.262,100.738 569.596,99.7376 571.5,99.5 Z"/></g>
<g><path style="opacity:0.02" fill="#9a9a9a" d="M 683.5,102.5 C 685.404,102.738 686.738,103.738 687.5,105.5C 685.596,105.262 684.262,104.262 683.5,102.5 Z"/></g>
<g><path style="opacity:0.18" fill="#8c8c8c" d="M 567.5,102.5 C 566.738,104.262 565.404,105.262 563.5,105.5C 564.262,103.738 565.596,102.738 567.5,102.5 Z"/></g>
<g><path style="opacity:0.176" fill="#8f8f8f" d="M 173.5,103.5 C 173.068,104.71 172.401,105.71 171.5,106.5C 171.285,104.821 171.952,103.821 173.5,103.5 Z"/></g>
<g><path style="opacity:0.463" fill="#686868" d="M 514.5,101.5 C 516.54,103.177 518.54,104.844 520.5,106.5C 517.13,106.371 515.13,104.705 514.5,101.5 Z"/></g>
<g><path style="opacity:0.09" fill="#ababab" d="M 64.5,104.5 C 65.9063,104.973 66.573,105.973 66.5,107.5C 65.0937,107.027 64.427,106.027 64.5,104.5 Z"/></g>
<g><path style="opacity:0.133" fill="#828282" d="M 171.5,106.5 C 170.974,108.23 169.974,109.564 168.5,110.5C 168.554,108.368 169.554,107.035 171.5,106.5 Z"/></g>
<g><path style="opacity:0.067" fill="#bababa" d="M 389.5,111.5 C 389.167,112.5 388.5,113.167 387.5,113.5C 387.5,112.167 388.167,111.5 389.5,111.5 Z"/></g>
<g><path style="opacity:0.012" fill="#cacaca" d="M 27.5,114.5 C 29.0481,114.821 29.7148,115.821 29.5,117.5C 28.5987,116.71 27.9321,115.71 27.5,114.5 Z"/></g>
<g><path style="opacity:0.22" fill="#9a9a9a" d="M 552.5,116.5 C 552.573,118.027 551.906,119.027 550.5,119.5C 550.427,117.973 551.094,116.973 552.5,116.5 Z"/></g>
<g><path style="opacity:0.118" fill="#959595" d="M 258.5,118.5 C 263.434,118.229 268.1,118.896 272.5,120.5C 267.63,120.31 262.964,119.644 258.5,118.5 Z"/></g>
<g><path style="opacity:0.027" fill="#cccccc" d="M 164.5,118.5 C 164.167,119.5 163.5,120.167 162.5,120.5C 162.5,119.167 163.167,118.5 164.5,118.5 Z"/></g>
<g><path style="opacity:0.071" fill="#dbdbdb" d="M 215.5,125.5 C 219.833,125.5 224.167,125.5 228.5,125.5C 228.737,126.791 228.404,127.791 227.5,128.5C 223.768,126.869 219.768,125.869 215.5,125.5 Z"/></g>
<g><path style="opacity:0.188" fill="#b2b2b2" d="M 77.5,125.5 C 79.7271,126.401 80.7271,128.067 80.5,130.5C 79.1103,129.101 78.1103,127.434 77.5,125.5 Z"/></g>
<g><path style="opacity:0.086" fill="#9a9a9a" d="M 337.5,125.5 C 338.906,125.973 339.573,126.973 339.5,128.5C 338.094,128.027 337.427,127.027 337.5,125.5 Z"/></g>
<g><path style="opacity:0.153" fill="#8b8b8b" d="M 378.5,125.5 C 378.573,127.027 377.906,128.027 376.5,128.5C 376.427,126.973 377.094,125.973 378.5,125.5 Z"/></g>
<g><path style="opacity:0.357" fill="#777777" d="M 290.5,128.5 C 293.135,129.473 295.135,131.14 296.5,133.5C 293.891,132.557 291.891,130.89 290.5,128.5 Z"/></g>
<g><path style="opacity:0.255" fill="#7e7e7e" d="M 114.5,129.5 C 114.573,131.027 113.906,132.027 112.5,132.5C 112.427,130.973 113.094,129.973 114.5,129.5 Z"/></g>
<g><path style="opacity:0.067" fill="#bfbfbf" d="M 339.5,128.5 C 340.906,128.973 341.573,129.973 341.5,131.5C 340.094,131.027 339.427,130.027 339.5,128.5 Z"/></g>
<g><path style="opacity:0.184" fill="#9f9f9f" d="M 80.5,130.5 C 81.9063,130.973 82.573,131.973 82.5,133.5C 81.0937,133.027 80.427,132.027 80.5,130.5 Z"/></g>
<g><path style="opacity:0.129" fill="#858585" d="M 660.5,130.5 C 662.027,130.427 663.027,131.094 663.5,132.5C 661.973,132.573 660.973,131.906 660.5,130.5 Z"/></g>
<g><path style="opacity:0.075" fill="#b3b3b3" d="M 375.5,130.5 C 375.573,132.027 374.906,133.027 373.5,133.5C 373.427,131.973 374.094,130.973 375.5,130.5 Z"/></g>
<g><path style="opacity:0.11" fill="#9f9f9f" d="M 663.5,133.5 C 665.027,133.427 666.027,134.094 666.5,135.5C 664.973,135.573 663.973,134.906 663.5,133.5 Z"/></g>
<g><path style="opacity:0.09" fill="#a3a3a3" d="M 305.5,144.5 C 307.669,146.34 309.002,148.674 309.5,151.5C 307.412,149.664 306.079,147.331 305.5,144.5 Z"/></g>
<g><path style="opacity:0.447" fill="#7e7e7e" d="M 48.5,147.5 C 50.0481,147.821 50.7148,148.821 50.5,150.5C 49.5987,149.71 48.9321,148.71 48.5,147.5 Z"/></g>
<g><path style="opacity:0.067" fill="#c8c8c8" d="M 576.5,147.5 C 576.34,149.153 575.674,150.486 574.5,151.5C 574.229,149.62 574.896,148.287 576.5,147.5 Z"/></g>
<g><path style="opacity:0.09" fill="#949494" d="M 407.5,149.5 C 407.34,151.153 406.674,152.486 405.5,153.5C 405.229,151.62 405.896,150.287 407.5,149.5 Z"/></g>
<g><path style="opacity:0.008" fill="#b7b7b7" d="M 57.5,161.5 C 59.2624,162.262 60.2624,163.596 60.5,165.5C 58.7376,164.738 57.7376,163.404 57.5,161.5 Z"/></g>
<g><path style="opacity:0.169" fill="#747474" d="M 571.5,159.5 C 571.59,162.152 570.924,164.485 569.5,166.5C 569.41,163.848 570.076,161.515 571.5,159.5 Z"/></g>
<g><path style="opacity:0.086" fill="#838383" d="M 128.5,174.5 C 128.068,175.71 127.401,176.71 126.5,177.5C 126.285,175.821 126.952,174.821 128.5,174.5 Z"/></g>
<g><path style="opacity:0.016" fill="#929292" d="M 72.5,184.5 C 74.0481,184.821 74.7148,185.821 74.5,187.5C 73.5987,186.71 72.9321,185.71 72.5,184.5 Z"/></g>
<g><path style="opacity:0.424" fill="#808080" d="M 74.5,187.5 C 76.7409,188.3 77.7409,189.966 77.5,192.5C 76.2632,191.035 75.2632,189.368 74.5,187.5 Z"/></g>
<g><path style="opacity:0.047" fill="#a5a5a5" d="M 572.5,195.5 C 574.104,196.287 574.771,197.62 574.5,199.5C 573.326,198.486 572.66,197.153 572.5,195.5 Z"/></g>
<g><path style="opacity:0.208" fill="#888888" d="M 405.5,198.5 C 406.89,199.899 407.89,201.566 408.5,203.5C 406.273,202.599 405.273,200.933 405.5,198.5 Z"/></g>
<g><path style="opacity:0.078" fill="#8f8f8f" d="M 310.5,197.5 C 310.771,199.38 310.104,200.713 308.5,201.5C 308.66,199.847 309.326,198.514 310.5,197.5 Z"/></g>
<g><path style="opacity:0.067" fill="#9f9f9f" d="M 574.5,199.5 C 575.674,200.514 576.34,201.847 576.5,203.5C 574.896,202.713 574.229,201.38 574.5,199.5 Z"/></g>
<g><path style="opacity:0.247" fill="#989898" d="M 168.5,199.5 C 170.31,202.145 171.31,205.145 171.5,208.5C 169.69,205.855 168.69,202.855 168.5,199.5 Z"/></g>
<g><path style="opacity:0.224" fill="#a7a7a7" d="M 213.5,208.5 C 215.262,209.262 216.262,210.596 216.5,212.5C 214.738,211.738 213.738,210.404 213.5,208.5 Z"/></g>
<g><path style="opacity:0.282" fill="#a1a1a1" d="M 217.5,213.5 C 219.262,214.262 220.262,215.596 220.5,217.5C 218.738,216.738 217.738,215.404 217.5,213.5 Z"/></g>
<g><path style="opacity:0.137" fill="#7c7c7c" d="M 500.5,214.5 C 499.833,215.833 498.833,216.833 497.5,217.5C 497.5,215.5 498.5,214.5 500.5,214.5 Z"/></g>
<g><path style="opacity:0.345" fill="#909090" d="M 504.5,214.5 C 505.833,215.167 506.833,216.167 507.5,217.5C 505.5,217.5 504.5,216.5 504.5,214.5 Z"/></g>
<g><path style="opacity:0.38" fill="#707070" d="M 672.5,214.5 C 671.883,214.389 671.383,214.056 671,213.5C 669.223,215.79 667.056,217.457 664.5,218.5C 666.182,215.985 668.348,213.985 671,212.5C 672.03,212.836 672.53,213.503 672.5,214.5 Z"/></g>
<g><path style="opacity:0.043" fill="#9b9b9b" d="M 539.5,214.5 C 540.906,214.973 541.573,215.973 541.5,217.5C 540.094,217.027 539.427,216.027 539.5,214.5 Z"/></g>
<g><path style="opacity:0.114" fill="#8e8e8e" d="M 584.5,214.5 C 585.833,215.833 587.167,217.167 588.5,218.5C 585.858,218.512 584.525,217.179 584.5,214.5 Z"/></g>
<g><path style="opacity:0.008" fill="#d6d6d6" d="M 371.5,215.5 C 373.048,215.821 373.715,216.821 373.5,218.5C 372.599,217.71 371.932,216.71 371.5,215.5 Z"/></g>
<g><path style="opacity:0.035" fill="#c0c0c0" d="M 227.5,222.5 C 229.027,222.427 230.027,223.094 230.5,224.5C 228.973,224.573 227.973,223.906 227.5,222.5 Z"/></g>
<g><path style="opacity:0.133" fill="#b6b6b6" d="M 681.5,222.5 C 683.914,223.911 685.581,225.911 686.5,228.5C 684.086,227.089 682.419,225.089 681.5,222.5 Z"/></g>
<g><path style="opacity:0.043" fill="#bdbdbd" d="M 230.5,224.5 C 232.027,224.427 233.027,225.094 233.5,226.5C 231.973,226.573 230.973,225.906 230.5,224.5 Z"/></g>
<g><path style="opacity:0.137" fill="#a5a5a5" d="M 487.5,224.5 C 486.089,226.539 484.089,227.539 481.5,227.5C 483.181,225.992 485.181,224.992 487.5,224.5 Z"/></g>
<g><path style="opacity:0.078" fill="#a6a6a6" d="M 653.5,225.5 C 652.341,227.25 650.674,228.25 648.5,228.5C 649.659,226.75 651.326,225.75 653.5,225.5 Z"/></g>
<g><path style="opacity:0.206" fill="#3e3e3e" d="M 77.5,192.5 C 78.8322,203.146 79.4989,214.146 79.5,225.5C 79.4999,236.672 79.1665,247.672 78.5,258.5C 78.8219,236.425 78.4886,214.425 77.5,192.5 Z"/></g>
<g><path style="opacity:0.239" fill="#9a9a9a" d="M 180.5,227.5 C 182.144,227.81 183.144,228.81 183.5,230.5C 181.856,230.19 180.856,229.19 180.5,227.5 Z"/></g>
<g><path style="opacity:0.059" fill="#9f9f9f" d="M 432.5,226.5 C 434.027,226.427 435.027,227.094 435.5,228.5C 433.973,228.573 432.973,227.906 432.5,226.5 Z"/></g>
<g><path style="opacity:0.329" fill="#828282" d="M 516.5,226.5 C 518.167,227.5 519.5,228.833 520.5,230.5C 518.167,230.167 516.833,228.833 516.5,226.5 Z"/></g>
<g><path style="opacity:0.016" fill="#888888" d="M 599.5,226.5 C 601.38,226.229 602.713,226.896 603.5,228.5C 601.847,228.34 600.514,227.674 599.5,226.5 Z"/></g>
<g><path style="opacity:0.184" fill="#777777" d="M 236.5,227.5 C 240.037,228.54 243.37,229.873 246.5,231.5C 243.624,231.073 240.791,230.406 238,229.5C 236.97,229.164 236.47,228.497 236.5,227.5 Z"/></g>
<g><path style="opacity:0.216" fill="#787878" d="M 280.5,228.5 C 279.22,229.931 277.553,230.598 275.5,230.5C 276.78,229.069 278.447,228.402 280.5,228.5 Z"/></g>
<g><path style="opacity:0.251" fill="#919191" d="M 195.5,244.5 C 197.749,245.08 199.415,246.413 200.5,248.5C 198.251,247.92 196.585,246.587 195.5,244.5 Z"/></g>
<g><path style="opacity:0.027" fill="#bcbcbc" d="M 521.5,244.5 C 520.5,246.167 519.167,247.5 517.5,248.5C 517.833,246.167 519.167,244.833 521.5,244.5 Z"/></g>
<g><path style="opacity:0.004" fill="#afafaf" d="M 508.5,254.5 C 507.486,255.674 506.153,256.34 504.5,256.5C 505.287,254.896 506.62,254.229 508.5,254.5 Z"/></g>
<g><path style="opacity:0.106" fill="#8b8b8b" d="M 672.5,256.5 C 671.713,258.104 670.38,258.771 668.5,258.5C 669.514,257.326 670.847,256.66 672.5,256.5 Z"/></g>
<g><path style="opacity:0.114" fill="#979797" d="M 579.5,257.5 C 582.089,257.461 584.089,258.461 585.5,260.5C 583.181,260.008 581.181,259.008 579.5,257.5 Z"/></g>
<g><path style="opacity:0.008" fill="#c7c7c7" d="M 302.5,258.5 C 301.486,259.674 300.153,260.34 298.5,260.5C 299.287,258.896 300.62,258.229 302.5,258.5 Z"/></g>
<g><path style="opacity:0.082" fill="#b1b1b1" d="M 413.5,258.5 C 416.089,258.461 418.089,259.461 419.5,261.5C 417.181,261.008 415.181,260.008 413.5,258.5 Z"/></g>
<g><path style="opacity:0.964" fill="#121212" d="M 692.5,291.5 C 693.786,294.117 695.453,296.45 697.5,298.5C 699.35,313.482 692.683,319.982 677.5,318C 667.276,312.748 664.776,304.915 670,294.5C 676.744,287.743 684.244,286.743 692.5,291.5 Z"/></g>
<g><path style="opacity:1" fill="#969697" d="M 609.5,288.5 C 617.841,287.588 624.341,290.588 629,297.5C 631.615,306.981 628.448,313.814 619.5,318C 611.326,320.17 605.159,317.67 601,310.5C 597.457,300.6 600.29,293.267 609.5,288.5 Z"/></g>
<g><path style="opacity:0.529" fill="#c4a27b" d="M 645.5,288.5 C 644.016,290.074 642.349,291.407 640.5,292.5C 636.96,294.915 634.96,298.248 634.5,302.5C 635.618,307.394 637.284,312.061 639.5,316.5C 634.324,312.488 632.157,307.155 633,300.5C 634.394,293.606 638.561,289.606 645.5,288.5 Z"/></g>
<g><path style="opacity:1" fill="#d58535" d="M 639.5,316.5 C 637.284,312.061 635.618,307.394 634.5,302.5C 634.96,298.248 636.96,294.915 640.5,292.5C 643.156,291.842 645.822,291.175 648.5,290.5C 658.858,293.495 662.858,300.162 660.5,310.5C 657.219,314.742 652.885,317.075 647.5,317.5C 644.824,317.163 642.157,316.83 639.5,316.5 Z"/></g>
<g><path style="opacity:0.086" fill="#989898" d="M 692.5,291.5 C 695.323,292.992 696.99,295.326 697.5,298.5C 695.453,296.45 693.786,294.117 692.5,291.5 Z"/></g>
<g><path style="opacity:0.782" fill="#bc8d59" d="M 639.5,316.5 C 642.157,316.83 644.824,317.163 647.5,317.5C 652.885,317.075 657.219,314.742 660.5,310.5C 662.858,300.162 658.858,293.495 648.5,290.5C 645.822,291.175 643.156,291.842 640.5,292.5C 642.349,291.407 644.016,290.074 645.5,288.5C 658.75,287.585 664.917,293.918 664,307.5C 658.886,318.983 650.72,321.983 639.5,316.5 Z"/></g>
<g><path style="opacity:0.384" fill="#464646" d="M 486.5,333.5 C 486.5,332.5 486.5,331.5 486.5,330.5C 401.167,330.5 315.833,330.5 230.5,330.5C 230.5,331.5 230.5,332.5 230.5,333.5C 229.566,332.432 229.232,331.099 229.5,329.5C 315.5,329.5 401.5,329.5 487.5,329.5C 487.768,331.099 487.434,332.432 486.5,333.5 Z"/></g>
<g><path style="opacity:0.701" fill="#010101" d="M 486.5,333.5 C 401.167,334.833 315.833,334.833 230.5,333.5C 230.5,332.5 230.5,331.5 230.5,330.5C 315.833,330.5 401.167,330.5 486.5,330.5C 486.5,331.5 486.5,332.5 486.5,333.5 Z"/></g>
</svg>
